<svg xmlns="http://www.w3.org/2000/svg" width="30" height="30" viewBox="0 0 31.444 31.443" fill="#273043"><path d="M31.202 16.369a2.754 2.754 0 00-3.637-1.391l-1.325.594-3.396-7.591 1.325-.592a2.753 2.753 0 00-2.248-5.027l-1.324.593-.593-1.326a2.752 2.752 0 10-5.026 2.249l.593 1.325L7.98 8.598l-.592-1.325A2.753 2.753 0 102.362 9.52l.592 1.324-1.324.594a2.754 2.754 0 002.248 5.026l1.325-.594 3.394 7.592-1.325.592a2.754 2.754 0 002.248 5.028l1.324-.593.593 1.325a2.752 2.752 0 105.025-2.247l-.591-1.326 7.591-3.394.592 1.321a2.751 2.751 0 105.026-2.245l-.592-1.324 1.323-.594a2.75 2.75 0 001.391-3.636zm-17.579 4.846l-3.395-7.593 7.591-3.394 3.395 7.591-7.591 3.396z"/></svg>